<svg width="16" height="17" viewBox="0 0 16 17" fill="none" xmlns="http://www.w3.org/2000/svg">
<path d="M1.00827 12.5294V7.70593C1.00827 5.64703 2.66088 3.99998 4.72674 3.99998H6.2613C6.20228 3.76469 6.14326 3.58822 6.14326 3.35292C6.14326 2.5294 6.67446 1.88234 7.44174 1.64705C7.67783 0.705878 8.50413 0 9.56653 0C9.92066 0 10.1567 0.235293 10.1567 0.588232C10.1567 0.941171 9.92066 1.17646 9.56653 1.17646C9.15337 1.17646 8.85826 1.41176 8.6812 1.70587C9.33044 1.99999 9.80261 2.58822 9.80261 3.35292C9.80261 3.58822 9.74359 3.76469 9.68457 3.99998H11.2191C13.285 3.99998 14.9376 5.64703 14.9376 7.70593V12.5294C15.5278 12.5883 16 13.1177 16 13.7059V16.4118C16 16.7647 15.7639 17 15.4098 17H0.595209C0.241078 17 0.00499058 16.7647 0.00499058 16.4118V13.7059C-0.0540314 13.0588 0.418049 12.5883 1.00827 12.5294ZM13.757 8.70602C13.5209 8.76485 13.3438 8.94132 13.1077 9.05896C12.6946 9.35308 12.1634 9.76484 11.1601 9.76484C10.1568 9.76484 9.62555 9.35308 9.21249 9.05896C8.85836 8.76485 8.56325 8.58838 7.97303 8.58838C7.38281 8.58838 7.0877 8.76485 6.73357 9.05896C6.32042 9.35308 5.78922 9.76484 4.78595 9.76484C3.78267 9.76484 3.25138 9.35308 2.83832 9.05896C2.60223 8.88249 2.42517 8.76485 2.18908 8.70602V12.5294H13.7574L13.757 8.70602ZM8.62199 3.35302C8.62199 3.00008 8.32688 2.70596 7.97275 2.70596C7.61862 2.70596 7.32351 3.00008 7.32351 3.35302C7.32351 3.70596 7.61862 4.00007 7.97275 4.00007C8.32688 4.00007 8.62199 3.70596 8.62199 3.35302ZM11.2189 5.17654H4.72655C3.42807 5.17654 2.30675 6.17653 2.18851 7.47074C2.77873 7.58838 3.19189 7.8825 3.54602 8.11779C3.90015 8.41191 4.19526 8.58838 4.78547 8.58838C5.37569 8.58838 5.6708 8.41191 6.02493 8.11779C6.43809 7.82367 6.96928 7.41191 7.97256 7.41191C8.97584 7.41191 9.50713 7.82367 9.92019 8.11779C10.2743 8.41191 10.5694 8.58838 11.1596 8.58838C11.7499 8.58838 12.045 8.41191 12.3991 8.11779C12.7532 7.8825 13.1074 7.58838 13.7566 7.47074C13.6386 6.17662 12.5171 5.17654 11.2186 5.17654H11.2189ZM1.12612 15.7647H14.8192V13.6471H1.18505V15.7647H1.12612Z" fill="black"/>
</svg>
