<svg width="17" height="17" viewBox="0 0 17 17" fill="none" xmlns="http://www.w3.org/2000/svg">
<g clip-path="url(#clip0_6_1027)">
<path d="M6.2099 6.49997C6.36664 6.05442 6.676 5.67871 7.0832 5.43939C7.4904 5.20008 7.96916 5.1126 8.43468 5.19245C8.9002 5.2723 9.32244 5.51432 9.62662 5.87566C9.93079 6.23699 10.0973 6.69432 10.0966 7.16664C10.0966 8.49997 8.09657 9.16664 8.09657 9.16664M8.15 11.8333H8.15667M14.8167 8.49992C14.8167 12.1818 11.8319 15.1666 8.15 15.1666C4.46811 15.1666 1.48334 12.1818 1.48334 8.49992C1.48334 4.81802 4.46811 1.83325 8.15 1.83325C11.8319 1.83325 14.8167 4.81802 14.8167 8.49992Z" stroke="#71717A" stroke-linecap="round" stroke-linejoin="round"/>
</g>
<defs>
<clipPath id="clip0_6_1027">
<rect width="16" height="16" fill="white" transform="translate(0.150024 0.5)"/>
</clipPath>
</defs>
</svg>
