<svg width="13" height="4" viewBox="0 0 13 4" fill="none" xmlns="http://www.w3.org/2000/svg">
<path d="M6.49508 2.66671C6.86327 2.66671 7.16174 2.36823 7.16174 2.00004C7.16174 1.63185 6.86327 1.33337 6.49508 1.33337C6.12689 1.33337 5.82841 1.63185 5.82841 2.00004C5.82841 2.36823 6.12689 2.66671 6.49508 2.66671Z" stroke="#09090B" stroke-linecap="round" stroke-linejoin="round"/>
<path d="M11.1617 2.66671C11.5299 2.66671 11.8284 2.36823 11.8284 2.00004C11.8284 1.63185 11.5299 1.33337 11.1617 1.33337C10.7936 1.33337 10.4951 1.63185 10.4951 2.00004C10.4951 2.36823 10.7936 2.66671 11.1617 2.66671Z" stroke="#09090B" stroke-linecap="round" stroke-linejoin="round"/>
<path d="M1.82841 2.66671C2.1966 2.66671 2.49508 2.36823 2.49508 2.00004C2.49508 1.63185 2.1966 1.33337 1.82841 1.33337C1.46022 1.33337 1.16174 1.63185 1.16174 2.00004C1.16174 2.36823 1.46022 2.66671 1.82841 2.66671Z" stroke="#09090B" stroke-linecap="round" stroke-linejoin="round"/>
</svg>
