<svg width="20" height="22" viewBox="0 0 20 22" fill="none" xmlns="http://www.w3.org/2000/svg">
<path d="M8.30005 20C8.46743 20.3044 8.7135 20.5583 9.01254 20.7352C9.31158 20.912 9.65263 21.0053 10 21.0053C10.3475 21.0053 10.6885 20.912 10.9876 20.7352C11.2866 20.5583 11.5327 20.3044 11.7 20M4 7C4 5.4087 4.63214 3.88258 5.75736 2.75736C6.88258 1.63214 8.4087 1 10 1C11.5913 1 13.1174 1.63214 14.2426 2.75736C15.3679 3.88258 16 5.4087 16 7C16 14 19 16 19 16H1C1 16 4 14 4 7Z" stroke="#09090B" stroke-width="2" stroke-linecap="round" stroke-linejoin="round"/>
</svg>
