<svg xmlns="http://www.w3.org/2000/svg" viewBox="0 0 64 64"><defs><style>.cls-1{fill:#0072ff;}</style></defs><title>shapes folder</title><g id="Layer_2" data-name="Layer 2"><path class="cls-1" d="M52,16H34a5.27,5.27,0,0,1-3.77-1.59l-3.9-4A8,8,0,0,0,20.58,8H12a8,8,0,0,0-8,8V52a8,8,0,0,0,8,8H52a8,8,0,0,0,8-8V24A8,8,0,0,0,52,16ZM19,35a5,5,0,1,1,5,5A5,5,0,0,1,19,35ZM37.22,52H26.78a1.57,1.57,0,0,1-1.3-2.46L30.7,41.9a1.57,1.57,0,0,1,2.59,0l5.22,7.64A1.57,1.57,0,0,1,37.22,52ZM46,38a2,2,0,0,1-2,2H38a2,2,0,0,1-2-2V32a2,2,0,0,1,2-2H44a2,2,0,0,1,2,2Z"/></g></svg>