<svg width="13" height="13" viewBox="0 0 13 13" fill="none" xmlns="http://www.w3.org/2000/svg">
<path d="M9.75 13H13V9.80459H11.9167V11.1818L11.0021 10.2826C11.573 9.56093 11.9167 8.65725 11.9167 7.67432C11.9167 5.45521 10.1815 3.62906 7.97543 3.43331C7.8861 3.28652 7.79105 3.14366 7.68083 3.00902L8.45541 2.25278L9.20833 2.99303L9.97749 2.23679L9.21918 1.49651L9.97749 0.750939L9.20833 0L8.45541 0.740277L7.6971 0L6.92791 0.750939L7.68625 1.49651L6.91167 2.25808C5.23249 0.974608 2.80041 1.09179 1.26209 2.60426C0.449593 3.40312 0 4.45759 0 5.58663C0 6.71037 0.449593 7.77018 1.26209 8.56903C1.95491 9.25021 2.85056 9.66914 3.81706 9.77342C4.56307 11.0621 5.9704 11.9349 7.58333 11.9349C8.58306 11.9349 9.50218 11.597 10.2362 11.0357L11.1507 11.9349H9.75V13ZM2.02583 7.81279C1.41916 7.21632 1.08333 6.4281 1.08333 5.58663C1.08333 4.7452 1.41916 3.95698 2.02583 3.3605C3.26084 2.14093 5.28125 2.13027 6.5325 3.33388L6.59207 3.39245C6.62659 3.42802 6.65482 3.46939 6.68782 3.50642C4.72686 3.91332 3.25 5.627 3.25 7.67432C3.25 7.98719 3.28676 8.2914 3.35219 8.58525C2.85721 8.43537 2.39918 8.17988 2.02583 7.81279ZM7.58333 10.8697C5.79118 10.8697 4.33333 9.43637 4.33333 7.67432C4.33333 5.91227 5.79118 4.47891 7.58333 4.47891C9.37549 4.47891 10.8333 5.91227 10.8333 7.67432C10.8333 9.43637 9.37549 10.8697 7.58333 10.8697Z" fill="black"/>
</svg>
