<?xml version="1.0" encoding="UTF-8"?>
<svg id="Layer_1" xmlns="http://www.w3.org/2000/svg" xmlns:xlink="http://www.w3.org/1999/xlink" version="1.1" viewBox="0 0 100 125">
  <!-- Generator: Adobe Illustrator 29.3.1, SVG Export Plug-In . SVG Version: 2.1.0 Build 151)  -->
  <path d="M59.1,35c.1-.7.3-1.5.4-2.2.5.2,1.1.4,1.6.7.3-1.3.6-2.6.9-3.9-.7-.3-1.4-.6-2.1-.9-3.2-1.2-6.6-1.8-9.9-1.8s-6.6.6-9.9,1.8c-.7.3-1.4.5-2.1.9.3,1.3.6,2.6.9,3.9.5-.2,1.1-.5,1.6-.7.1.7.3,1.5.4,2.2,0,0,0,0,0,0,3-1.2,6-1.8,9.1-1.8s6.1.6,9.1,1.8c0,0,0,0,0,0Z"/>
  <path d="M40.1,16.1c.3-.1.7-.4,1-.5,2.9-1,5.9-1.5,8.9-1.5s6,.5,8.9,1.5c.3.1.7.4,1,.6.6.2,1.1,0,1.7.9h1.4v-3h-1v-1.2l-12-8.4-12,8.4v1.2h-1v3h1.4c.6-1,1.1-.7,1.7-.9Z"/>
  <path d="M63.4,64.7l-13.4,9.7-16.8,12.2-1.2,7.8c-.1.8.2,1.7.8,1.7h4.5l12.6-9.4,15.1-11-1.7-10.9Z"/>
  <path d="M40.9,37.3l-1.8,11.5,10.9-7.9,6.3-4.5c-2.1-.6-4.2-.8-6.3-.8-3,0-6.1.6-9.1,1.7Z"/>
  <polygon points="61.9 55.1 60.2 44.2 50 51.6 37.2 60.9 35.1 74.5 50 63.7 61.9 55.1"/>
  <path d="M68,94.3l-1.4-8.9-14.4,10.6h15c.6,0,1-.9.8-1.7Z"/>
  <path d="M41.5,26.7c2.8-.9,5.6-1.3,8.5-1.3,3,0,6,.5,8.9,1.5.7-3,1.3-6.1,2-9.1-3.5-1.6-7.2-2.3-10.8-2.3-3.5,0-7,.7-10.5,2.2-.1,0-.3.1-.4.2.7,3,1.3,6.1,2,9.1.1,0,.3,0,.4-.1Z"/>
</svg>