<svg width="13" height="13" viewBox="0 0 13 13" fill="none" xmlns="http://www.w3.org/2000/svg">
<path d="M4.87504 9.20866H3.79171C3.07341 9.20866 2.38454 8.92332 1.87663 8.41541C1.36872 7.9075 1.08337 7.21862 1.08337 6.50033C1.08337 5.78203 1.36872 5.09316 1.87663 4.58524C2.38454 4.07733 3.07341 3.79199 3.79171 3.79199H4.87504M8.12504 3.79199H9.20837C9.92667 3.79199 10.6155 4.07733 11.1235 4.58524C11.6314 5.09316 11.9167 5.78203 11.9167 6.50033C11.9167 7.21862 11.6314 7.9075 11.1235 8.41541C10.6155 8.92332 9.92667 9.20866 9.20837 9.20866H8.12504M4.33337 6.50033H8.66671" stroke="#09090B" stroke-linecap="round" stroke-linejoin="round"/>
</svg>
