<svg width="14" height="15" viewBox="0 0 14 15" fill="none" xmlns="http://www.w3.org/2000/svg">
<path d="M11.6667 6.33366C11.6667 9.83366 7.00004 13.3337 7.00004 13.3337C7.00004 13.3337 2.33337 9.83366 2.33337 6.33366C2.33337 5.09598 2.82504 3.909 3.70021 3.03383C4.57538 2.15866 5.76236 1.66699 7.00004 1.66699C8.23772 1.66699 9.4247 2.15866 10.2999 3.03383C11.175 3.909 11.6667 5.09598 11.6667 6.33366Z" stroke="#09090B" stroke-linecap="round" stroke-linejoin="round"/>
<path d="M7.00004 8.08366C7.96654 8.08366 8.75004 7.30016 8.75004 6.33366C8.75004 5.36716 7.96654 4.58366 7.00004 4.58366C6.03354 4.58366 5.25004 5.36716 5.25004 6.33366C5.25004 7.30016 6.03354 8.08366 7.00004 8.08366Z" stroke="#09090B" stroke-linecap="round" stroke-linejoin="round"/>
</svg>
