<svg width="697" height="252" viewBox="0 0 697 252" fill="none" xmlns="http://www.w3.org/2000/svg">
<path opacity="0.1" d="M396.7 84.5V104.5H397.1C402.3 97.4 408.4 91.9 415.4 88C422.5 84.1 430 82.2 438.1 82.2C446.2 82.2 440.4 82.2 440.9 82.3V89.4L498.8 61.9L486 20.9C487.1 20.8 488.2 20.7 489.3 20.7C495.3 20.7 500.5 22.8 504.8 27.1C509.1 31.3 511.3 36.4 511.3 42.3C511.3 48.2 509.1 53.4 504.8 57.7C500.5 62 495.3 64.1 489.3 64.1C483.3 64.1 481.6 63.1 478.2 61.2C474.8 59.2 472.1 56.6 470.2 53.3C468.3 50 467.3 46.3 467.3 42.4C467.3 36.5 469.4 31.4 473.7 27.2C476.3 24.7 479.2 22.9 482.4 21.9L199 84.7H235.4V156.9C235.4 169.1 237.3 177.7 241 182.6C241.3 183.1 241.7 183.5 242.1 183.9L288.9 161.7C289.5 158.3 289.8 154.5 289.8 150.5V84.6H326.2V143.9L360.2 127.8V84.6H396.6L396.7 84.5Z" fill="#D0DF00"/>
<path d="M29.1 124.5C25.8 133.3 24.2 142.7 24.2 152.9C24.2 163.1 25.8 172.8 29.1 181.5C32.4 190.2 36.9 197.6 42.6 203.6C48.4 209.6 55.2 214.3 63.2 217.6C71.2 220.9 79.9 222.6 89.2 222.6C106.6 222.6 120.1 216.4 129.8 203.9H130.5V220.3H165.1V92L30 122C29.7 122.8 29.3 123.6 29 124.5H29.1ZM70 125.4C76.7 118.4 85 114.9 94.9 114.9C104.8 114.9 112.9 118.5 119.4 125.8C125.9 133 129.1 142.1 129.1 153C129.1 163.9 125.8 172.9 119.2 179.8C112.6 186.7 104.4 190.1 94.8 190.1C85.2 190.1 76.2 186.7 69.8 179.8C63.4 172.9 60.1 164 60.1 153C60.1 141.6 63.4 132.4 70.1 125.4H70Z" fill="#D0DF00"/>
<path d="M128.7 84.5V100.1H128.2C118.1 88.3 104.7 82.2 88.1 82.2C71.5 82.2 70.7 84 62.8 87.5C54.9 91 48.1 95.9 42.4 102C37.3 107.6 33.2 114.2 30 121.9L165.1 92V84.5H128.7Z" fill="black"/>
<path d="M241.1 182.5C237.3 177.6 235.5 169 235.5 156.8V84.6H199.1V166.4C199.1 176.5 200.3 185.3 202.7 192.6C203.7 195.6 204.9 198.4 206.3 201L242.3 183.9C241.9 183.5 241.5 183.1 241.2 182.6L241.1 182.5Z" fill="#D0DF00"/>
<path d="M281.2 179.6C275.4 186.5 268.2 189.9 259.7 189.9C251.2 189.9 245.9 187.9 242.1 183.8L206.1 200.9C208 204.5 210.3 207.5 213 210.1C217.6 214.4 222.8 217.6 228.7 219.7C234.6 221.7 241.3 222.8 248.9 222.8C256.5 222.8 264 221.2 271 218C278 214.8 284 210.1 289.3 204H289.8V220.6H326.2V144.1L288.9 161.8C287.6 169.1 285.1 175.1 281.1 179.8L281.2 179.6Z" fill="black"/>
<path d="M289.9 84.5V150.4C289.9 154.4 289.6 158.1 289 161.6L326.3 143.9V84.6H289.9V84.5Z" fill="#D0DF00"/>
<path d="M440.9 82.3C440.4 82.3 439.4 82.2 438.1 82.2C430 82.2 422.5 84.1 415.4 88C408.3 91.9 402.2 97.4 397.1 104.5H396.7V84.5H360.3V127.7L441 89.4V82.3H440.9Z" fill="#D0DF00"/>
<path d="M360.3 127.7V220.3H396.7V157.3C396.7 146.9 399.7 138.4 405.9 131.8C412 125.2 420.5 121.9 431.4 121.9C442.3 121.9 437.4 122 441 122.3V89.5L360.3 127.8V127.7Z" fill="black"/>
<path d="M482.5 21.7L486 20.9C484.8 21.1 483.6 21.3 482.5 21.7Z" fill="#D0DF00"/>
<path d="M467.4 42.3C467.4 46.3 468.4 49.9 470.3 53.2C472.2 56.5 474.9 59.2 478.3 61.1C481.7 63 485.4 64 489.4 64C495.4 64 500.6 61.9 504.9 57.6C509.2 53.4 511.4 48.2 511.4 42.2C511.4 36.2 509.2 31.2 504.9 27C500.6 22.8 495.4 20.6 489.4 20.6C483.4 20.6 487.1 20.7 486.1 20.8L482.6 21.6C479.4 22.6 476.5 24.4 473.9 26.9C469.6 31.1 467.5 36.2 467.5 42.2L467.4 42.3Z" fill="#D0DF00"/>
<path d="M507.5 84.5H471.1V220.3H507.5V84.5Z" fill="black"/>
<path d="M657.4 95.2C652.9 90.8 647.8 87.5 641.9 85.3C636 83.1 629.4 82.1 621.9 82.1C614.4 82.1 605.5 83.8 597.9 87.2C590.3 90.6 583.8 95.5 578.3 101.9H577.9V84.4H541.5V220.2H577.9V151.9C577.9 140 580.7 130.9 586.2 124.5C591.7 118.1 599.3 114.9 608.7 114.9C618.1 114.9 624.1 117.4 628.4 122.5C632.7 127.6 634.8 136.4 634.8 148.9V220.5H671.2V139.8C671.2 129.6 670 120.7 667.7 113.2C665.4 105.7 661.9 99.7 657.5 95.3L657.4 95.2Z" fill="black"/>
<path opacity="0.1" d="M202.7 192.5C200.3 185.2 199.1 176.4 199.1 166.3V84.5L165.1 92V220.3L206.2 200.8C204.8 198.3 203.6 195.5 202.6 192.5H202.7Z" fill="#D0DF00"/>
<path opacity="0.1" d="M70 125.4C76.7 118.4 85 114.9 94.9 114.9C104.8 114.9 112.9 118.5 119.4 125.8C125.9 133 129.1 142.1 129.1 153C129.1 163.9 125.8 172.9 119.2 179.8C112.6 186.7 104.4 190.1 94.8 190.1C85.2 190.1 76.2 186.7 69.8 179.8C63.4 172.9 60.1 164 60.1 153C60.1 141.6 63.4 132.4 70.1 125.4H70Z" fill="#D0DF00"/>
</svg>
