<svg width="697" height="252" viewBox="0 0 697 252" fill="none" xmlns="http://www.w3.org/2000/svg">
<path opacity="0.3" d="M396.8 84.3V104.3H397.2C402.4 97.2 408.5 91.7 415.5 87.8C422.6 83.9 430.1 82 438.2 82C446.3 82 440.5 82 441 82.1V89.2L498.9 61.7L486.1 20.7C487.2 20.7 488.3 20.5 489.4 20.5C495.4 20.5 500.6 22.6 504.9 26.9C509.2 31.1 511.4 36.2 511.4 42.1C511.4 48 509.2 53.2 504.9 57.5C500.6 61.8 495.4 63.9 489.4 63.9C483.4 63.9 481.7 62.9 478.3 61C474.9 59 472.2 56.4 470.3 53.1C468.4 49.8 467.4 46.1 467.4 42.2C467.4 36.3 469.5 31.2 473.8 27C476.4 24.5 479.3 22.7 482.5 21.7L199.1 84.5H235.5V156.7C235.5 168.9 237.4 177.5 241.1 182.4C241.4 182.9 241.8 183.3 242.2 183.7L289 161.5C289.6 158.1 289.9 154.3 289.9 150.3V84.4H326.3V143.7L360.3 127.6V84.4H396.8V84.3Z" fill="#D0DF00"/>
<path d="M29.2 124.2C25.9 133 24.3 142.4 24.3 152.6C24.3 162.8 25.9 172.5 29.2 181.2C32.5 189.9 37 197.3 42.7 203.3C48.5 209.3 55.3 214 63.3 217.3C71.3 220.6 80 222.3 89.3 222.3C106.7 222.3 120.2 216.1 129.9 203.6H130.6V220H165.2V91.7L30.1 121.6C29.8 122.4 29.4 123.2 29.1 124.1H29.2V124.2ZM70.2 125.2C76.9 118.2 85.2 114.7 95.1 114.7C105 114.7 113.1 118.3 119.6 125.6C126.1 132.8 129.3 141.9 129.3 152.8C129.3 163.7 126 172.7 119.4 179.6C112.8 186.5 104.6 189.9 95 189.9C85.4 189.9 76.4 186.5 70 179.6C63.6 172.7 60.3 163.8 60.3 152.8C60.3 141.8 63.6 132.2 70.3 125.2H70.2Z" fill="white"/>
<path d="M128.9 84.3V99.9H128.4C118.3 88.1 104.9 82 88.3 82C71.7 82 70.9 83.8 63 87.3C55.1 90.8 48.3 95.7 42.6 101.8C37.5 107.4 33.4 114 30.2 121.7L165.3 91.8V84.3H128.9Z" fill="#D0DF00"/>
<path d="M241.2 182.3C237.4 177.4 235.6 168.8 235.6 156.6V84.4H199.2V166.2C199.2 176.3 200.4 185.1 202.8 192.4C203.8 195.4 205 198.2 206.4 200.8L242.4 183.7C242 183.3 241.6 182.9 241.3 182.4H241.2V182.3Z" fill="white"/>
<path d="M281.4 179.3C275.6 186.2 268.4 189.6 259.9 189.6C251.4 189.6 246.1 187.6 242.3 183.5L206.3 200.6C208.2 204.2 210.5 207.2 213.2 209.8C217.8 214.1 223 217.3 228.9 219.4C234.8 221.4 241.5 222.5 249.1 222.5C256.7 222.5 264.2 220.9 271.2 217.7C278.2 214.5 284.2 209.8 289.5 203.7H290V220.3H326.4V143.8L289.1 161.5C287.8 168.8 285.3 174.8 281.3 179.5V179.3H281.4Z" fill="#D0DF00"/>
<path d="M290.1 84.3V150.2C290.1 154.2 289.8 157.9 289.2 161.4L326.5 143.7V84.4H290.1V84.3Z" fill="white"/>
<path d="M441.1 82.1C440.6 82.1 439.6 82 438.3 82C430.2 82 422.7 83.9 415.6 87.8C408.5 91.7 402.4 97.2 397.3 104.3H396.9V84.3H360.5V127.5L441.2 89.2V82.1H441.1Z" fill="white"/>
<path d="M360.4 127.5V220.1H396.8V157.1C396.8 146.7 399.8 138.2 406 131.6C412.1 125 420.6 121.7 431.5 121.7C442.4 121.7 437.5 121.8 441.1 122.1V89.3L360.4 127.6V127.5Z" fill="#D0DF00"/>
<path d="M482.6 21.5L486.1 20.7C484.9 20.9 483.7 21.1 482.6 21.5Z" fill="#D0DF00"/>
<path d="M467.5 42.1C467.5 46.1 468.5 49.7 470.4 53C472.3 56.3 475 59 478.4 60.9C481.8 62.8 485.5 63.8 489.5 63.8C495.5 63.8 500.7 61.7 505 57.4C509.3 53.2 511.5 48 511.5 42C511.5 36 509.3 31 505 26.8C500.7 22.6 495.5 20.4 489.5 20.4C483.5 20.4 487.2 20.4 486.2 20.6L482.7 21.4C479.5 22.4 476.6 24.2 474 26.7C469.7 30.9 467.6 36 467.6 42L467.5 42.1Z" fill="white"/>
<path d="M507.7 84.3H471.3V220.1H507.7V84.3Z" fill="#D0DF00"/>
<path d="M657.5 95C653 90.6 647.9 87.3 642 85.1C636.1 82.9 629.5 81.9 622 81.9C614.5 81.9 605.6 83.6 598 87C590.4 90.4 583.9 95.3 578.4 101.7H578V84.2H541.6V220H578V151.7C578 139.8 580.8 130.7 586.3 124.3C591.8 117.9 599.4 114.7 608.8 114.7C618.2 114.7 624.2 117.2 628.5 122.3C632.8 127.4 634.9 136.2 634.9 148.7V220.3H671.3V139.6C671.3 129.4 670.1 120.5 667.8 113C665.5 105.5 662 99.5 657.6 95.1H657.5V95Z" fill="#D0DF00"/>
<path opacity="0.3" d="M202.8 192.3C200.4 185 199.2 176.2 199.2 166.1V84.3L165.2 91.8V220.1L206.3 200.6C204.9 198.1 203.7 195.3 202.7 192.3H202.8Z" fill="#D0DF00"/>
<path opacity="0.2" d="M70.2 125.2C76.9 118.2 85.2 114.7 95.1 114.7C105 114.7 113.1 118.3 119.6 125.6C126.1 132.8 129.3 141.9 129.3 152.8C129.3 163.7 126 172.7 119.4 179.6C112.8 186.5 104.6 189.9 95 189.9C85.4 189.9 76.4 186.5 70 179.6C63.6 172.7 60.3 163.8 60.3 152.8C60.3 141.8 63.6 132.2 70.3 125.2H70.2Z" fill="#D0DF00"/>
</svg>
