<svg width="22" height="22" viewBox="0 0 22 22" fill="none" xmlns="http://www.w3.org/2000/svg">
<path d="M20.44 10.05L11.25 19.24C10.1241 20.3659 8.59717 20.9984 7.00498 20.9984C5.4128 20.9984 3.88583 20.3659 2.75998 19.24C1.63414 18.1142 1.00165 16.5872 1.00165 14.995C1.00165 13.4029 1.63414 11.8759 2.75998 10.75L11.33 2.18003C12.0805 1.42815 13.0991 1.00521 14.1614 1.00427C15.2238 1.00334 16.2431 1.42447 16.995 2.17503C17.7469 2.9256 18.1698 3.9441 18.1707 5.0065C18.1717 6.06889 17.7505 7.08815 17 7.84003L8.40998 16.41C8.0347 16.7853 7.52571 16.9961 6.99498 16.9961C6.46426 16.9961 5.95527 16.7853 5.57998 16.41C5.2047 16.0348 4.99387 15.5258 4.99387 14.995C4.99387 14.4643 5.2047 13.9553 5.57998 13.58L14.07 5.10003" stroke="#F9FAFB" stroke-width="2" stroke-linecap="round" stroke-linejoin="round"/>
</svg>
