<svg width="18" height="18" viewBox="0 0 18 18" fill="none" xmlns="http://www.w3.org/2000/svg">
<path d="M9.95008 3.60002L12.5501 6.40009M13.9632 4.86838C14.3068 4.49836 14.4999 3.99648 14.5 3.47314C14.5001 2.9498 14.3071 2.44787 13.9635 2.07776C13.6199 1.70766 13.1539 1.4997 12.6679 1.49963C12.182 1.49957 11.7159 1.7074 11.3722 2.07741L2.69727 11.4219C2.54635 11.584 2.43474 11.7835 2.37227 12.0029L1.51361 15.0494C1.49681 15.1099 1.49554 15.1743 1.50994 15.2355C1.52433 15.2968 1.55386 15.3527 1.59538 15.3973C1.6369 15.442 1.68886 15.4737 1.74576 15.4891C1.80266 15.5045 1.86237 15.503 1.91856 15.4848L4.74804 14.5608C4.9516 14.4941 5.13685 14.3747 5.28754 14.2129L13.9632 4.86838Z" stroke="black" stroke-linecap="round" stroke-linejoin="round"/>
</svg>
