<svg width="13" height="13" viewBox="0 0 13 13" fill="none" xmlns="http://www.w3.org/2000/svg">
<g clip-path="url(#clip0_185_1009)">
<path d="M7.61033 1.08301C8.71439 1.19934 9.74567 1.68902 10.5336 2.47107C11.3216 3.25312 11.819 4.28069 11.9437 5.38384M7.61033 3.24967C8.14307 3.35472 8.63192 3.61748 9.01346 4.00384C9.39499 4.3902 9.65157 4.88233 9.74991 5.41634M11.9167 9.16473V10.7897C11.9173 10.9406 11.8864 11.0899 11.8259 11.2281C11.7655 11.3663 11.6769 11.4904 11.5657 11.5924C11.4545 11.6944 11.3233 11.772 11.1804 11.8204C11.0375 11.8687 10.8861 11.8866 10.7358 11.8731C9.06902 11.6919 7.46794 11.1224 6.06123 10.2101C4.75247 9.3785 3.64287 8.2689 2.81123 6.96014C1.89581 5.54705 1.32612 3.93818 1.14832 2.26389C1.13478 2.1141 1.15258 1.96314 1.20059 1.82061C1.24859 1.67808 1.32575 1.5471 1.42715 1.43602C1.52855 1.32494 1.65196 1.23619 1.78954 1.17543C1.92711 1.11466 2.07584 1.0832 2.22623 1.08306H3.85123C4.11411 1.08047 4.36895 1.17356 4.56827 1.34497C4.76759 1.51639 4.89778 1.75443 4.93457 2.01473C5.00315 2.53476 5.13035 3.04537 5.31373 3.53681C5.38661 3.73069 5.40238 3.94139 5.35918 4.14395C5.31598 4.34652 5.21562 4.53245 5.06998 4.67973L4.38207 5.36764C5.15316 6.72373 6.27598 7.84655 7.63207 8.61764L8.31998 7.92973C8.46726 7.78409 8.65319 7.68373 8.85576 7.64053C9.05832 7.59733 9.26903 7.6131 9.4629 7.68598C9.95434 7.86936 10.4649 7.99656 10.985 8.06514C11.2481 8.10226 11.4884 8.2348 11.6602 8.43754C11.832 8.64028 11.9232 8.89908 11.9167 9.16473Z" stroke="#09090B" stroke-linecap="round" stroke-linejoin="round"/>
</g>
<defs>
<clipPath id="clip0_185_1009">
<rect width="13" height="13" fill="white"/>
</clipPath>
</defs>
</svg>
