<svg width="18" height="17" viewBox="0 0 18 17" fill="none" xmlns="http://www.w3.org/2000/svg">
<path d="M13.25 14.875C13.25 13.7478 12.8022 12.6668 12.0052 11.8698C11.2082 11.0728 10.1272 10.625 9 10.625M9 10.625C7.87283 10.625 6.79183 11.0728 5.9948 11.8698C5.19777 12.6668 4.75 13.7478 4.75 14.875M9 10.625C10.5648 10.625 11.8333 9.35647 11.8333 7.79167C11.8333 6.22686 10.5648 4.95833 9 4.95833C7.43519 4.95833 6.16667 6.22686 6.16667 7.79167C6.16667 9.35647 7.43519 10.625 9 10.625ZM4.04167 2.125H13.9583C14.7407 2.125 15.375 2.75926 15.375 3.54167V13.4583C15.375 14.2407 14.7407 14.875 13.9583 14.875H4.04167C3.25926 14.875 2.625 14.2407 2.625 13.4583V3.54167C2.625 2.75926 3.25926 2.125 4.04167 2.125Z" stroke="#0D0D0D" stroke-linecap="round" stroke-linejoin="round"/>
</svg>
