<svg width="17" height="17" viewBox="0 0 17 17" fill="none" xmlns="http://www.w3.org/2000/svg">
<path d="M3.83333 2.5C3.47971 2.5 3.14057 2.64048 2.89052 2.89052C2.64048 3.14057 2.5 3.47971 2.5 3.83333M13.1667 2.5C13.5203 2.5 13.8594 2.64048 14.1095 2.89052C14.3595 3.14057 14.5 3.47971 14.5 3.83333M3.83333 14.5C3.47971 14.5 3.14057 14.3595 2.89052 14.1095C2.64048 13.8594 2.5 13.5203 2.5 13.1667M6.5 2.5H7.16667M6.5 14.5H7.83333M9.83333 2.5H10.5M2.5 6.5V7.16667M14.5 6.5V7.83333M2.5 9.83333V10.5M8.5 8.5L11.1667 15.1667L12.3 12.3L15.1667 11.1667L8.5 8.5Z" stroke="white" stroke-linecap="round" stroke-linejoin="round"/>
</svg>
