<svg width="22" height="21" viewBox="0 0 22 21" fill="none" xmlns="http://www.w3.org/2000/svg">
<path d="M11 1.75V3.5M11 17.5V19.25M4.78741 4.28741L6.01241 5.51241M15.9877 15.4875L17.2127 16.7125M2.25 10.5H4M18 10.5H19.75M6.01241 15.4875L4.78741 16.7125M17.2127 4.28741L15.9877 5.51241M11 7C10.5611 7.46917 10.3218 8.09055 10.3325 8.73291C10.3432 9.37527 10.6031 9.98832 11.0574 10.4426C11.5117 10.8969 12.1247 11.1568 12.7671 11.1675C13.4095 11.1782 14.0308 10.9389 14.5 10.5C14.5 11.1922 14.2947 11.8689 13.9101 12.4445C13.5256 13.0201 12.9789 13.4687 12.3394 13.7336C11.6999 13.9985 10.9961 14.0678 10.3172 13.9327C9.63825 13.7977 9.01461 13.4644 8.52513 12.9749C8.03564 12.4854 7.7023 11.8617 7.56725 11.1828C7.43221 10.5039 7.50152 9.80015 7.76642 9.16061C8.03133 8.52107 8.47993 7.97444 9.05551 7.58986C9.63108 7.20527 10.3078 7 11 7Z" stroke="#0D0D0D" stroke-linecap="round" stroke-linejoin="round"/>
</svg>
