<svg width="41" height="40" viewBox="0 0 41 40" fill="none" xmlns="http://www.w3.org/2000/svg">
<path d="M20.5 1V4.8M20.5 35.2V39M6.65481 6.50981L9.38481 9.16982M31.6154 30.8299L34.3454 33.4899M1 20H4.9M36.1 20H40M9.38481 30.8299L6.65481 33.4899M34.3454 6.50981L31.6154 9.16982M20.5 12.4C19.5219 13.4188 18.9885 14.7681 19.0124 16.1629C19.0362 17.5577 19.6155 18.8889 20.6279 19.8754C21.6403 20.8618 23.0065 21.4263 24.4381 21.4495C25.8696 21.4728 27.2544 20.953 28.3 20C28.3 21.5031 27.8425 22.9725 26.9855 24.2223C26.1284 25.4721 24.9102 26.4463 23.4849 27.0215C22.0597 27.5967 20.4914 27.7472 18.9783 27.454C17.4652 27.1607 16.0754 26.4369 14.9846 25.374C13.8937 24.3111 13.1508 22.9569 12.8499 21.4827C12.5489 20.0084 12.7034 18.4803 13.2937 17.0916C13.8841 15.7029 14.8839 14.5159 16.1666 13.6808C17.4493 12.8457 18.9573 12.4 20.5 12.4Z" stroke="#09090B" stroke-width="2" stroke-linecap="round" stroke-linejoin="round"/>
</svg>
