<svg width="18" height="17" viewBox="0 0 18 17" fill="none" xmlns="http://www.w3.org/2000/svg">
<path d="M2.625 6.375C2.625 5.99928 2.77426 5.63894 3.03993 5.37327C3.30561 5.10759 3.66594 4.95833 4.04167 4.95833H13.9583C14.3341 4.95833 14.6944 5.10759 14.9601 5.37327C15.2257 5.63894 15.375 5.99928 15.375 6.375M2.625 7.79167H4.75C5.31667 7.79167 5.88333 8.00417 6.2375 8.42917L7.01667 9.06667C8.15 10.2 9.92083 10.2 11.0542 9.06667L11.8333 8.42917C12.1875 8.075 12.7542 7.79167 13.3208 7.79167H15.375M4.04167 2.125H13.9583C14.7407 2.125 15.375 2.75926 15.375 3.54167V13.4583C15.375 14.2407 14.7407 14.875 13.9583 14.875H4.04167C3.25926 14.875 2.625 14.2407 2.625 13.4583V3.54167C2.625 2.75926 3.25926 2.125 4.04167 2.125Z" stroke="white" stroke-linecap="round" stroke-linejoin="round"/>
</svg>
